<svg width="512" height="512" viewBox="0 0 512 512" fill="none" xmlns="http://www.w3.org/2000/svg">
<path d="M304 456V432L328 408V420V432L304 456Z" fill="#5865F2"/>
<path d="M288 424L264 448L272 456H296V432L288 424Z" fill="#5865F2"/>
<path d="M280 384L256 408L232 384V416L256 440L280 416V384Z" fill="#5865F2"/>
<path d="M312 288L256 344L200 288V336L256 392L312 336V288Z" fill="#5865F2"/>
<path d="M184 224V256H120L152 224H184Z" fill="#5865F2"/>
<path d="M328 224V256H392L360 224H328Z" fill="#5865F2"/>
<path d="M192 296V328H160L128 360V328L160 296H192Z" fill="#5865F2"/>
<path d="M320 296V328H352L384 360V328L352 296H320Z" fill="#5865F2"/>
<path d="M320 216L256 280L192 216V264L256 328L320 264V216Z" fill="#5865F2"/>
<path d="M176 208V176L144 144L168 120V56L112 112V176L144 208H176Z" fill="#5865F2"/>
<path d="M336 208V176L368 144L344 120V56L400 112V176L368 208H336Z" fill="#5865F2"/>
<path d="M184 192L256 264L328 192L256 120L184 192Z" fill="#5865F2"/>
</svg>
